<svg width="300" height="300" viewBox="0 0 300 300" fill="none" xmlns="http://www.w3.org/2000/svg">
<rect x="3" y="3" width="294" height="294" rx="14" fill="black"/>
<path d="M130.578 166.973L125.792 166.335C124.217 165.255 122.983 163.846 122.09 162.105C121.327 160.499 120.631 158.894 120.002 157.289L119.002 157.281C116.735 157.263 115.259 157.651 114.574 158.446C114.019 159.375 113.466 160.237 112.914 161.033C112.359 161.961 111.015 162.417 108.881 162.4C107.415 162.389 105.886 162.177 104.295 161.764C102.702 161.485 101.105 161.339 99.5049 161.326C98.5716 161.318 97.7018 161.445 96.8956 161.705C96.2228 161.966 95.4197 162.093 94.4864 162.086C92.4865 162.07 90.361 161.72 88.1099 161.035C85.8588 160.351 83.8837 159.268 82.1845 157.788C80.6187 156.309 79.8622 154.437 79.9149 152.171C79.9893 148.972 81.3149 146.449 83.8916 144.603C86.6047 142.625 89.3659 141.447 92.1751 141.069L91.7658 141.466C90.2775 142.387 88.5163 143.573 86.4822 145.024C84.4512 146.341 83.4109 148.066 83.3613 150.198C83.3179 152.064 84.4171 153.54 86.6588 154.624C89.0339 155.71 91.0215 156.259 92.6214 156.271L93.6307 155.88C95.2213 156.292 97.0833 156.507 99.2166 156.524C102.416 156.549 105.756 156.309 109.235 155.804C112.847 155.299 115.859 154.79 118.272 154.276L118.304 152.876C117.145 151.134 116.584 149.463 116.621 147.863L118.946 142.482L117.593 140.471L119.472 137.087L119.486 136.487L117.891 136.274L116.872 137.066L116.877 136.866L117.705 135.673C117.345 133.937 117.657 132.006 118.639 129.881C119.756 127.756 120.872 125.632 121.988 123.508C123.241 121.251 123.888 119.257 123.928 117.524C125.016 116.599 126.258 114.809 127.653 112.154C129.185 109.366 130.652 106.512 132.053 103.59C133.455 100.668 134.573 98.4768 135.407 97.0169C138.058 91.9718 141.038 87.1292 144.346 82.4893C147.658 77.716 151.166 73.0777 154.872 68.5742C153.529 68.9635 152.186 69.3528 150.844 69.7421C149.635 70.1324 148.297 70.3217 146.83 70.3101C145.881 70.9691 143.931 71.6869 140.979 72.4633C138.027 73.2398 134.874 74.0813 131.519 74.9879C128.3 75.7622 125.48 76.6064 123.059 77.5204C120.64 78.301 119.421 79.0913 119.403 79.8911L119.98 80.8956L123.231 78.7216L124.021 79.1279L125.244 78.1377L125.426 78.9391C125.389 80.5386 124.956 81.9351 124.128 83.1284L123.37 81.3225L121.542 82.5079L121.91 83.9107L120.7 84.301C121.358 84.7062 121.879 85.2436 122.263 85.9133C122.781 86.584 123.232 87.2542 123.617 87.9239C120.547 88.0328 117.589 89.0759 114.742 91.053C112.032 92.898 109.139 94.0082 106.064 94.3837C105.375 95.3115 104.495 95.9044 103.422 96.1625C102.349 96.4207 101.279 96.5455 100.213 96.537C99.5459 96.5317 98.5599 95.9239 97.2545 94.7136C95.9522 93.37 94.7848 91.9609 93.7523 90.4861C92.8563 88.8791 92.416 87.7424 92.4315 87.0759C92.4656 85.6096 93.3679 84.0836 95.1384 82.4978C96.9089 80.912 98.2701 79.723 99.2221 78.9306L96.9291 82.912C98.5538 81.8584 100.847 80.7434 103.808 79.567C106.769 78.3907 109.795 77.2815 112.887 76.2395C116.115 75.0653 119.008 73.9551 121.566 72.9089C124.127 71.7293 125.883 70.7434 126.835 69.951C132.069 68.5261 137.367 67.2351 142.728 66.0778C148.225 64.7883 153.647 63.8982 158.992 63.4074C159.678 62.6129 160.772 61.4218 162.276 59.8339C163.916 58.1137 165.552 56.5935 167.183 55.2733C168.817 53.8197 170.167 53.0972 171.234 53.1057C173.634 53.1248 175.764 53.275 177.625 53.5565C179.488 53.7046 180.857 55.0487 181.731 57.5888C181.697 59.0551 181.066 60.3833 179.838 61.5734C178.747 62.6313 177.66 63.4893 176.578 64.1473L178.569 64.5631C179.644 64.1716 180.527 63.5121 181.215 62.5843L182.42 62.3939L182.82 62.3971C183.62 62.4034 184.282 62.6087 184.806 63.0128C185.463 63.418 186.052 63.8893 186.573 64.4267L188.796 63.4445C192.129 63.471 196.176 64.3698 200.935 66.1409C205.698 67.7786 210.38 70.0157 214.981 72.852C219.716 75.6894 223.575 78.9199 226.558 82.5433C229.677 86.0345 231.191 89.7129 231.101 93.5785C231.061 95.3113 230.887 97.0431 230.58 98.7739C230.277 100.371 229.973 101.969 229.669 103.566L228.478 103.157L227.46 103.949L227.45 104.349L229.008 106.161C228.007 109.086 226.475 111.873 224.413 114.523C222.488 117.041 220.368 119.291 218.055 121.272C215.909 121.789 213.744 123.171 211.558 125.42C209.372 127.669 207.133 129.318 204.841 130.366C203.334 132.088 201.773 133.275 200.158 133.929C198.542 134.583 196.975 136.037 195.456 138.291L193.698 136.477L193.284 137.074L193.456 138.275C193.431 139.342 192.418 139.867 190.419 139.851C189.885 139.847 189.352 139.842 188.819 139.838C188.422 139.702 188.09 139.632 187.823 139.63L186.8 140.622L186.963 142.223C186.826 142.355 186.149 142.817 184.93 143.607C183.845 144.398 183.31 144.461 183.326 143.794L182.926 143.791C180.628 145.106 178.532 146.356 176.637 147.541L175.261 146.53L174.219 148.321C174.092 148.054 173.834 147.652 173.447 147.115C173.062 146.446 172.605 146.042 172.075 145.904L169.819 148.286L169.619 148.285L167.247 147.066L165.01 148.648L164.029 147.84L160.591 149.413L160.787 149.614L162.187 149.625L163.359 150.835L163.354 151.035L162.754 151.03L159.573 150.205L157.354 150.987L156.159 150.777C157.517 149.722 159.072 148.801 160.824 148.015L159.638 147.405L156.992 149.384L155.21 148.57L155.192 149.37C153.985 149.627 153.106 150.153 152.554 150.949L152.513 152.748L151.708 152.942L149.531 151.925C148.858 152.186 148.186 152.447 147.513 152.708C146.973 152.971 146.432 153.3 145.89 153.695C143.217 153.941 140.601 154.587 138.043 155.633C135.482 156.812 132.802 157.391 130.002 157.369L128.42 156.556L128.104 161.553L129.434 164.564L129.634 164.565L130.792 166.374L130.788 166.574L130.578 166.973ZM128.741 151.359C139.482 148.245 149.905 144.462 160.01 140.009C170.252 135.424 180.301 130.505 190.158 125.25L191.154 125.458L192.158 125.266L191.977 124.465L192.595 123.67L193.577 124.477L196.019 122.697L195.828 122.295L194.637 121.886C195.062 120.823 196.76 119.503 199.73 117.927C202.704 116.217 205.95 114.243 209.469 112.005C213.125 109.634 216.322 106.926 219.06 103.882C221.801 100.704 223.22 97.0488 223.316 92.9166C223.421 88.3845 222.241 84.6421 219.776 81.6894C217.314 78.6034 214.105 76.1114 210.149 74.2135C206.192 72.3155 201.825 70.8809 197.047 69.9096C192.402 68.9394 187.884 68.2369 183.494 67.802C179.103 67.3671 175.308 67.1369 172.108 67.1114C170.744 68.4338 169.711 69.8255 169.011 71.2864C168.446 72.6152 167.687 73.7424 166.732 74.668C165.777 75.5937 164.166 76.0475 161.899 76.0295L160.267 77.4164L160.22 79.4158C158.198 80.333 156.69 82.1208 155.695 84.7794C154.702 87.3046 153.519 89.4283 152.146 91.1506L151.709 92.747L152.295 93.3516L148.346 99.7196L147.909 101.316L147.123 100.71C147.104 101.51 146.532 103.172 145.406 105.696C144.284 108.087 142.954 110.809 141.416 113.863C139.881 116.784 138.481 119.639 137.216 122.429C136.084 125.22 135.368 127.347 135.067 128.811C134.112 129.737 133.197 131.796 132.323 134.989C131.451 138.049 130.712 141.176 130.104 144.371C129.496 147.566 129.042 149.895 128.741 151.359ZM163.247 147.034C164.323 146.643 165.339 145.984 166.294 145.059L165.503 144.652C164.967 144.781 164.427 145.044 163.884 145.439C163.478 145.703 163.005 145.966 162.466 146.228L163.247 147.034Z" fill="#ECDFCC"/>
<path d="M129.81 263.778C129.788 265.444 129.638 266.61 129.363 267.275C129.154 267.941 128.849 268.306 128.448 268.371C128.047 268.436 127.18 268.465 125.846 268.459L124.148 268.351C123.014 268.346 121.981 268.374 121.046 268.437C116.778 268.55 110.844 268.589 103.244 268.554C95.9107 268.52 89.9779 268.459 85.4455 268.371L85.4727 266.372L83.4727 266.362L83.5108 263.562C84.1052 254.166 84.489 243.101 84.662 230.369C84.856 216.103 84.8862 204.071 84.7528 194.27C85.624 193.941 86.8276 193.68 88.3636 193.487C89.9672 193.228 91.569 193.102 93.169 193.109C97.169 193.128 100.362 193.676 102.747 194.754L102.629 196.053C102.961 196.188 103.293 196.323 103.624 196.458C103.956 196.526 104.322 196.628 104.72 196.763C104.521 201.562 104.401 205.528 104.358 208.661C104.304 212.661 104.289 218.66 104.313 226.66L104.173 244.359L104.119 248.359C113.178 248.934 119.774 249.231 123.907 249.251C125.174 249.257 126.542 249.196 128.01 249.07L127.98 251.269L129.983 251.079C129.964 252.479 129.879 253.845 129.727 255.178L129.599 257.277L129.685 258.277L129.684 258.377L129.81 263.778ZM126.624 255.363C126.632 254.83 126.71 253.964 126.86 252.764L126.994 250.265C126.86 250.331 126.359 250.362 125.492 250.358C124.226 250.352 121.061 250.204 115.998 249.914C114.799 249.842 112.867 249.733 110.202 249.587C107.604 249.442 105.572 249.365 104.105 249.359C103.038 249.354 102.037 249.416 101.102 249.545L101.104 249.445L101.31 241.646C101.359 237.98 101.37 232.28 101.342 224.546C101.312 216.947 101.323 211.213 101.376 207.347C101.414 204.547 101.535 200.548 101.739 195.349C99.8832 194.541 97.022 194.127 93.1554 194.109C91.6221 194.102 90.1541 194.195 88.7514 194.389C87.4162 194.516 86.4135 194.711 85.7433 194.975C85.8296 208.242 85.8025 220.041 85.662 230.373C85.4889 243.106 85.1052 254.17 84.5107 263.567L84.4863 265.367C86.4196 265.376 87.8191 265.416 88.6849 265.486L102.383 265.65C107.717 265.675 113.485 265.602 119.687 265.431C120.488 265.368 121.422 265.339 122.489 265.344L124.687 265.454C125.554 265.458 126.123 265.26 126.395 264.862C126.667 264.463 126.815 263.43 126.837 261.764L126.711 256.363L126.624 255.363ZM173.842 268.482C171.169 268.936 169.033 269.16 167.433 269.152C164.366 269.138 161.371 268.791 158.447 268.111C158.191 267.309 157.964 266.808 157.767 266.607C157.57 266.407 157.338 266.272 157.072 266.204C156.806 266.203 156.606 266.169 156.474 266.101C155.963 264.432 155.267 261.729 154.384 257.992C153.881 255.79 153.436 254.188 153.049 253.186C152.729 252.184 152.37 251.683 151.97 251.681C151.436 251.678 150.969 251.71 150.568 251.774C150.235 251.773 149.768 251.771 149.168 251.768C148.684 253.032 148.19 255.063 147.685 257.861C147.117 260.458 146.622 262.522 146.201 264.054C145.78 265.585 145.194 267.049 144.441 268.445C144.241 268.445 143.941 268.476 143.54 268.541C143.206 268.606 142.772 268.638 142.239 268.635C141.506 268.565 139.973 268.525 137.64 268.514L133.341 268.394L128.043 268.269L128.37 266.271L126.07 266.26L127.571 258.867C129.584 248.077 131.762 237.454 134.104 226.999C136.447 216.477 139.361 205.69 142.845 194.64C144.046 194.512 144.747 194.449 144.947 194.45C145.214 194.451 146.08 194.489 147.546 194.562C149.012 194.636 152.081 194.45 156.754 194.005C157.005 195.139 157.162 195.873 157.224 196.207L158.727 196.014C159.28 199.416 161.255 208.625 164.651 223.641C165.91 229.113 166.571 232.016 166.633 232.35L173.842 268.482ZM155.939 195.101C153.002 195.354 150.1 195.474 147.234 195.461L145.134 195.451C144.334 195.447 143.833 195.478 143.632 195.544C140.286 206.261 137.478 216.681 135.207 226.804C133.003 236.927 130.789 247.716 128.567 259.172C128.349 260.438 128.133 261.637 127.918 262.769C127.703 263.835 127.525 264.667 127.384 265.266L127.582 265.367L129.982 265.378L137.881 265.515C138.547 265.585 139.346 265.622 140.279 265.626C141.013 265.63 141.447 265.598 141.581 265.532L141.882 265.434C142.496 264.437 142.979 263.239 143.331 261.841C143.683 260.442 144.075 258.577 144.507 256.246C145.225 252.516 145.892 250.019 146.509 248.756C147.242 248.759 147.842 248.762 148.309 248.764C148.777 248.7 149.144 248.668 149.41 248.669L150.71 248.675L152.708 248.884C153.225 250.087 153.735 251.756 154.24 253.891C154.811 256.027 155.159 257.362 155.285 257.896C155.909 261.032 156.543 263.469 157.186 265.205L157.286 265.205C159.878 265.817 162.607 266.13 165.474 266.143C167.14 266.151 168.876 265.992 170.68 265.667L170.682 265.568L163.658 230.536L155.939 195.101ZM145.969 236.954C146.85 231.024 147.254 228.326 147.18 228.859C147.774 224.396 148.251 221.165 148.611 219.166C149.04 217.102 149.454 216.07 149.854 216.072C150.32 216.074 150.799 217.643 151.29 220.779C151.847 223.915 152.54 229.318 153.369 236.988L148.368 237.065L145.969 236.954ZM151.038 224.577L149.283 235.969L152.183 235.982L151.038 224.577ZM213.07 234.165C215.496 237.177 217.294 239.785 218.464 241.99C219.634 244.196 220.199 246.798 220.158 249.798C220.055 257.397 217.618 262.552 212.848 265.263C208.144 267.975 202.059 269.313 194.592 269.279C190.859 269.261 187.627 269.113 184.898 268.833L184.998 268.834L178.802 268.505L178.402 268.503L177.702 268.5C176.302 268.494 175.611 267.824 175.629 266.49C174.566 266.219 173.935 266.049 173.736 265.982C173.564 258.981 173.539 251.048 173.659 242.182C173.759 234.849 173.867 229.383 173.982 225.784L174.308 209.186L174.493 195.587C179.981 194.013 185.459 193.238 190.925 193.264C195.792 193.286 200.28 194.174 204.39 195.926C208.5 197.612 211.798 200.227 214.284 203.772C216.769 207.317 217.975 211.756 217.903 217.088C217.836 222.021 216.096 227.38 212.684 233.164L212.681 233.364C212.678 233.564 212.809 233.798 213.072 234.065L213.07 234.165ZM209.507 231.449C209.511 231.182 209.614 230.916 209.818 230.65C213.159 225.199 214.863 220.007 214.93 215.075C215.029 207.809 212.8 202.532 208.245 199.244C203.689 195.956 197.911 194.296 190.912 194.264C185.978 194.241 180.835 194.95 175.482 196.392L175.38 196.491C175.405 199.625 175.375 204.258 175.292 210.391C175.195 217.523 175.089 222.856 174.974 226.389L174.657 242.387C174.542 250.786 174.572 258.419 174.745 265.286C175.277 265.422 175.609 265.49 175.742 265.491L176.942 265.497C178.276 265.503 179.475 265.542 180.541 265.613C181.673 265.685 182.606 265.756 183.338 265.826C187.335 266.112 190.433 266.259 192.633 266.269C199.833 266.303 205.684 265.03 210.186 262.451C214.754 259.872 217.087 254.983 217.185 247.784C217.224 244.918 216.658 242.448 215.486 240.376C214.382 238.238 212.649 235.697 210.289 232.753C209.763 232.217 209.502 231.782 209.507 231.449ZM193.606 224.075C192.073 224.068 190.641 223.961 189.311 223.755C188.929 222.42 188.752 220.719 188.78 218.653L188.927 215.154C189.002 214.554 189.047 213.721 189.061 212.654L189.079 211.355C189.952 210.892 191.189 210.664 192.789 210.672C195.189 210.683 197.382 211.16 199.369 212.102C201.358 212.978 202.337 214.516 202.307 216.716C202.288 218.116 201.836 219.48 200.951 220.809C200.267 222.073 199.289 222.935 198.016 223.396C196.81 223.857 195.34 224.083 193.606 224.075ZM201.307 216.711C201.318 215.911 201.126 215.344 200.73 215.009C200.335 214.607 199.706 214.304 198.842 214.1L198.942 214.1C197.613 213.827 196.214 213.688 194.748 213.681C193.548 213.675 192.68 213.771 192.144 213.969L192.13 214.969L191.984 218.368C191.825 220.234 191.74 221.6 191.728 222.467L191.82 223.067L193.62 223.075C196.887 223.091 199.033 222.167 200.058 220.305C200.875 219.043 201.292 217.844 201.307 216.711ZM189.33 251.755L189.131 251.654C188.215 250.383 187.776 248.381 187.813 245.648C187.855 242.515 188.258 239.85 189.022 237.654L191.419 237.865C193.551 237.941 195.315 238.149 196.711 238.489C198.107 238.762 199.297 239.468 200.282 240.606C201.267 241.744 201.744 243.446 201.713 245.712C201.692 247.245 201.342 248.444 200.664 249.307C199.783 250.37 198.706 251.065 197.435 251.392C196.164 251.72 194.662 251.879 192.929 251.871L189.33 251.755ZM200.713 245.708C200.725 244.841 200.54 243.674 200.16 242.205L200.159 242.305L200.06 242.205C198.738 241.399 196.81 240.99 194.277 240.978C193.677 240.975 192.844 240.905 191.779 240.766C191.139 243.763 190.807 246.062 190.786 247.661C190.782 247.928 190.742 248.395 190.667 249.061C190.658 249.727 190.818 250.195 191.148 250.463C191.544 250.732 192.175 250.868 193.042 250.872C194.642 250.879 195.977 250.752 197.048 250.49C198.185 250.162 199.127 249.567 199.872 248.704C200.415 247.973 200.696 246.974 200.713 245.708Z" fill="#ECDFCC"/>
</svg>

