<svg width="300" height="300" viewBox="0 0 300 300" fill="none" xmlns="http://www.w3.org/2000/svg">
<line y1="-0.5" x2="126.862" y2="-0.5" transform="matrix(0.453406 -0.891304 0.919518 0.393047 19 241.239)" stroke="#ECDFCC"/>
<path d="M19 241.232L117.675 281L281 241.232" stroke="#ECDFCC"/>
<path d="M76.8442 127.387L137.24 142.982L223.156 127.387" stroke="#ECDFCC"/>
<line y1="-0.5" x2="126.862" y2="-0.5" transform="matrix(-0.453406 -0.891304 -0.919518 0.393047 280.676 241.239)" stroke="#ECDFCC"/>
<line y1="-0.5" x2="138.508" y2="-0.5" transform="matrix(0.135113 -0.99083 0.993499 0.113838 119.377 281)" stroke="#ECDFCC"/>
<path d="M78.5555 125.827L144.045 117.25L223.166 127.387" stroke="#ECDFCC"/>
<line x1="144.195" y1="86.0595" x2="144.195" y2="120.369" stroke="#ECDFCC" stroke-width="2"/>
<path d="M153.402 86.3095C154.225 86.3095 154.854 86.9159 154.854 87.6191C154.854 88.3223 154.225 88.9287 153.402 88.9287C152.58 88.9286 151.951 88.3222 151.951 87.6191C151.951 86.9159 152.58 86.3096 153.402 86.3095Z" fill="black" stroke="#ECDFCC" stroke-width="0.5"/>
<path d="M143.195 84.75C144.017 84.75 144.646 85.3564 144.646 86.0596C144.646 86.7627 144.017 87.3691 143.195 87.3691C142.372 87.3691 141.744 86.7627 141.744 86.0596C141.744 85.3564 142.372 84.7501 143.195 84.75Z" fill="black" stroke="#ECDFCC" stroke-width="0.5"/>
<line y1="-0.25" x2="47.8626" y2="-0.25" transform="matrix(0.867185 -0.497987 0.460022 0.887908 156.892 74.6149)" stroke="#ECDFCC" stroke-width="0.5"/>
<line y1="-0.25" x2="41.489" y2="-0.25" transform="matrix(0.818512 -0.574489 0.534989 0.844859 138.026 50.7799)" stroke="#ECDFCC" stroke-width="0.5"/>
<line y1="-0.25" x2="27.6593" y2="-0.25" transform="matrix(0.818512 -0.574489 0.534989 0.844859 115.811 70.6424)" stroke="#ECDFCC" stroke-width="0.5"/>
<line y1="-0.25" x2="16.4366" y2="-0.25" transform="matrix(0.68869 -0.725056 0.68869 0.725056 104.491 86.5324)" stroke="#ECDFCC" stroke-width="0.5"/>
<line y1="-0.25" x2="15.607" y2="-0.25" transform="matrix(0.967064 -0.254532 0.231037 0.972945 108.264 90.5049)" stroke="#ECDFCC" stroke-width="0.5"/>
<line y1="-0.25" x2="28.9769" y2="-0.25" transform="matrix(0.911511 -0.411276 0.377034 0.926199 127.13 86.5324)" stroke="#ECDFCC" stroke-width="0.5"/>
<path d="M172.599 25.6697C172.599 25.6697 183.305 22.4512 192.738 32.3825C202.171 42.3137 199.011 49.5047 199.011 49.5047" stroke="#ECDFCC" stroke-width="0.5"/>
<path d="M172.839 28.1973C172.839 28.1973 182.325 25.6309 190.988 34.6738C199.65 43.7166 197 50 197 50" stroke="#ECDFCC" stroke-width="0.5"/>
<path d="M172.599 26.1909C172.599 26.1909 170.098 32.9037 179.531 42.835C188.964 52.7662 199.011 50.0259 199.011 50.0259" stroke="#ECDFCC" stroke-width="0.5"/>
<path d="M138.026 48.7937C138.026 48.7937 135.883 57.4819 141.799 66.6699C147.715 75.858 158.778 72.6287 158.778 72.6287" stroke="#ECDFCC" stroke-width="0.5"/>
<path d="M115.802 68.6484C115.802 68.6484 111.964 71.5503 116.463 79.4597C120.962 87.3692 127.13 86.5324 127.13 86.5324" stroke="#ECDFCC" stroke-width="0.5"/>
<path d="M103.643 85.5252C103.643 85.5252 104.107 86.496 104.491 88.5186C104.876 90.5412 108.265 90.5048 108.265 90.5048" stroke="#ECDFCC" stroke-width="0.2"/>
<rect x="0.25336" y="0.247141" width="11.4089" height="5.29681" rx="1.75" transform="matrix(0.999936 -0.0113464 0.0135028 0.999909 143.192 81.9567)" fill="black" stroke="#ECDFCC" stroke-width="0.5"/>
<path d="M132.136 84.1981L149.149 80.2592L157.656 74.0211" stroke="#ECDFCC" stroke-width="0.5"/>
<path d="M149.149 78.9497C150.441 78.9497 151.451 79.9049 151.451 81.0385C151.451 82.1724 150.441 83.1284 149.149 83.1284C147.857 83.1283 146.847 82.1723 146.847 81.0385C146.848 79.9049 147.857 78.9498 149.149 78.9497Z" fill="black" stroke="#ECDFCC" stroke-width="0.5"/>
<path d="M144.896 86.3095C145.718 86.3095 146.347 86.9159 146.347 87.6191C146.347 88.3223 145.718 88.9287 144.896 88.9287C144.074 88.9286 143.445 88.3222 143.445 87.6191C143.445 86.9159 144.074 86.3096 144.896 86.3095Z" fill="black" stroke="#ECDFCC" stroke-width="0.5"/>
<line y1="-1" x2="43.2469" y2="-1" transform="matrix(-0.432731 0.901523 -0.927407 -0.374054 143.195 89.1786)" stroke="#ECDFCC" stroke-width="2"/>
<line y1="-1" x2="43.9722" y2="-1" transform="matrix(0.386904 0.92212 -0.943102 0.332504 153.403 89.1786)" stroke="#ECDFCC" stroke-width="2"/>
<circle cx="135.5" cy="107.5" r="2.25" stroke="#ECDFCC" stroke-width="0.5"/>
<circle cx="162.5" cy="108.5" r="2.25" stroke="#ECDFCC" stroke-width="0.5"/>
<path d="M126 127.25C126.798 127.25 127.508 127.412 128.01 127.663C128.526 127.921 128.75 128.232 128.75 128.5C128.75 128.768 128.526 129.079 128.01 129.337C127.508 129.588 126.798 129.75 126 129.75C125.202 129.75 124.492 129.588 123.99 129.337C123.474 129.079 123.25 128.768 123.25 128.5C123.25 128.232 123.474 127.921 123.99 127.663C124.492 127.412 125.202 127.25 126 127.25Z" stroke="#ECDFCC" stroke-width="0.5"/>
<path d="M171 128.25C171.798 128.25 172.508 128.412 173.01 128.663C173.526 128.921 173.75 129.232 173.75 129.5C173.75 129.768 173.526 130.079 173.01 130.337C172.508 130.588 171.798 130.75 171 130.75C170.202 130.75 169.492 130.588 168.99 130.337C168.474 130.079 168.25 129.768 168.25 129.5C168.25 129.232 168.474 128.921 168.99 128.663C169.492 128.412 170.202 128.25 171 128.25Z" stroke="#ECDFCC" stroke-width="0.5"/>
<path d="M144 119.25C144.809 119.25 145.531 119.36 146.042 119.53C146.299 119.616 146.489 119.712 146.609 119.807C146.733 119.904 146.75 119.971 146.75 120C146.75 120.029 146.733 120.096 146.609 120.193C146.489 120.288 146.299 120.384 146.042 120.47C145.531 120.64 144.809 120.75 144 120.75C143.191 120.75 142.469 120.64 141.958 120.47C141.701 120.384 141.511 120.288 141.391 120.193C141.267 120.096 141.25 120.029 141.25 120C141.25 119.971 141.267 119.904 141.391 119.807C141.511 119.712 141.701 119.616 141.958 119.53C142.469 119.36 143.191 119.25 144 119.25Z" stroke="#ECDFCC" stroke-width="0.5"/>
<rect x="142.225" y="103.225" width="3.55" height="4.55" rx="1.775" stroke="#ECDFCC" stroke-width="0.45"/>
<path d="M188.781 201.231L187.244 201.411C186.665 201.202 186.164 200.864 185.742 200.397C185.371 199.96 185.021 199.519 184.692 199.073L184.381 199.149C183.676 199.323 183.251 199.559 183.105 199.858C183.011 200.189 182.911 200.499 182.807 200.789C182.712 201.119 182.334 201.366 181.671 201.529C181.215 201.641 180.723 201.696 180.195 201.694C179.678 201.734 179.17 201.814 178.673 201.937C178.383 202.008 178.124 202.115 177.896 202.259C177.709 202.393 177.471 202.496 177.181 202.567C176.559 202.72 175.871 202.779 175.115 202.745C174.36 202.711 173.657 202.533 173.006 202.209C172.397 201.876 172.006 201.357 171.833 200.652C171.588 199.658 171.788 198.774 172.433 198C173.109 197.175 173.867 196.594 174.706 196.255L174.612 196.41C174.228 196.812 173.781 197.318 173.272 197.926C172.752 198.493 172.574 199.108 172.737 199.771C172.879 200.351 173.343 200.72 174.129 200.879C174.957 201.027 175.619 201.04 176.116 200.918L176.396 200.717C176.924 200.719 177.519 200.638 178.182 200.476C179.177 200.231 180.192 199.894 181.229 199.463C182.306 199.022 183.198 198.627 183.903 198.278L183.796 197.843C183.291 197.396 182.977 196.924 182.855 196.427L183.126 194.581L182.538 194.066L182.838 192.872L182.792 192.686L182.279 192.746L182.03 193.071L182.014 193.009L182.171 192.575C181.915 192.067 181.85 191.446 181.977 190.711C182.145 189.967 182.314 189.222 182.482 188.478C182.682 187.682 182.716 187.015 182.583 186.476C182.844 186.105 183.079 185.454 183.29 184.523C183.531 183.541 183.747 182.543 183.938 181.53C184.128 180.516 184.291 179.751 184.428 179.234C184.828 177.466 185.347 175.735 185.985 174.04C186.613 172.304 187.313 170.595 188.085 168.911C187.701 169.137 187.318 169.363 186.934 169.589C186.591 169.805 186.192 169.969 185.737 170.081C185.498 170.36 184.953 170.735 184.102 171.208C183.252 171.681 182.345 172.189 181.38 172.734C180.447 173.227 179.643 173.71 178.968 174.184C178.284 174.616 177.972 174.956 178.033 175.204L178.296 175.469L179.122 174.541L179.401 174.604L179.698 174.202L179.821 174.435C179.943 174.933 179.926 175.398 179.769 175.832L179.383 175.334L178.915 175.844L179.147 176.249L178.804 176.465C179.042 176.538 179.248 176.663 179.424 176.84C179.64 177.006 179.836 177.178 180.011 177.354C179.069 177.63 178.239 178.186 177.521 179.021C176.835 179.805 176.031 180.376 175.109 180.734C174.973 181.075 174.749 181.328 174.438 181.492C174.127 181.657 173.806 181.78 173.474 181.861C173.267 181.912 172.911 181.802 172.405 181.531C171.888 181.219 171.409 180.875 170.965 180.501C170.553 180.075 170.321 179.758 170.27 179.551C170.158 179.096 170.31 178.553 170.727 177.923C171.143 177.294 171.466 176.819 171.695 176.499L171.317 177.91C171.732 177.456 172.35 176.931 173.17 176.334C173.99 175.737 174.836 175.156 175.707 174.59C176.61 173.973 177.414 173.401 178.12 172.876C178.815 172.31 179.278 171.867 179.506 171.547C181.01 170.694 182.545 169.877 184.111 169.097C185.708 168.265 187.314 167.562 188.931 166.989C189.077 166.69 189.317 166.235 189.65 165.626C190.015 164.965 190.395 164.367 190.79 163.83C191.176 163.252 191.534 162.922 191.865 162.841C192.611 162.657 193.284 162.536 193.885 162.476C194.475 162.375 195.012 162.682 195.495 163.398C195.607 163.854 195.523 164.314 195.242 164.779C194.992 165.192 194.726 165.543 194.446 165.831L195.098 165.803C195.399 165.597 195.617 165.324 195.753 164.983L196.111 164.829L196.235 164.798C196.484 164.737 196.706 164.748 196.902 164.832C197.14 164.905 197.362 165.004 197.569 165.129L198.176 164.651C199.212 164.396 200.542 164.355 202.166 164.527C203.779 164.657 205.418 164.979 207.082 165.493C208.788 165.996 210.255 166.69 211.483 167.575C212.742 168.407 213.519 169.425 213.815 170.626C213.947 171.165 214.038 171.714 214.088 172.273C214.127 172.79 214.166 173.308 214.206 173.825L213.802 173.793L213.553 174.118L213.583 174.242L214.218 174.679C214.152 175.662 213.91 176.644 213.492 177.625C213.106 178.555 212.637 179.417 212.085 180.212C211.463 180.541 210.907 181.139 210.417 182.006C209.927 182.874 209.371 183.559 208.748 184.064C208.425 184.715 208.04 185.205 207.594 185.534C207.147 185.864 206.783 186.436 206.5 187.253L205.804 186.831L205.725 187.048L205.879 187.406C205.96 187.737 205.69 187.979 205.069 188.132C204.903 188.173 204.737 188.214 204.572 188.254C204.437 188.243 204.328 188.248 204.246 188.269L204.011 188.656L204.196 189.138C204.164 189.189 203.993 189.385 203.681 189.725C203.411 190.056 203.25 190.117 203.199 189.91L203.075 189.94C202.472 190.528 201.927 191.079 201.439 191.595L200.927 191.391L200.754 192.027C200.692 191.954 200.579 191.85 200.414 191.715C200.238 191.538 200.063 191.45 199.887 191.449L199.387 192.363L199.324 192.378L198.487 192.189L197.926 192.854L197.554 192.682L196.619 193.439L196.697 193.485L197.132 193.379L197.596 193.66L197.612 193.722L197.425 193.768L196.37 193.764L195.747 194.18L195.359 194.21C195.692 193.776 196.097 193.369 196.575 192.988L196.156 192.894L195.501 193.714L194.88 193.603L194.941 193.851C194.589 194.026 194.36 194.258 194.256 194.547L194.393 195.106L194.16 195.23L193.4 195.087C193.213 195.221 193.026 195.354 192.839 195.488C192.694 195.612 192.554 195.756 192.419 195.921C191.61 196.208 190.853 196.614 190.148 197.139C189.452 197.705 188.669 198.095 187.799 198.309L187.241 198.183L187.561 199.752L188.225 200.577L188.287 200.562L188.797 201.029L188.813 201.092L188.781 201.231ZM186.906 196.552C189.976 194.742 192.892 192.751 195.653 190.579C198.445 188.354 201.15 186.042 203.767 183.641L204.093 183.627L204.389 183.488L204.265 183.255L204.391 182.96L204.762 183.133L205.371 182.39L205.278 182.281L204.875 182.248C204.917 181.886 205.333 181.345 206.123 180.623C206.902 179.861 207.744 178.995 208.648 178.025C209.583 177.005 210.348 175.916 210.942 174.759C211.526 173.561 211.661 172.32 211.345 171.035C210.999 169.627 210.32 168.563 209.308 167.845C208.287 167.086 207.083 166.569 205.698 166.295C204.312 166.02 202.838 165.921 201.275 165.998C199.754 166.064 198.294 166.203 196.896 166.415C195.498 166.627 194.302 166.855 193.308 167.1C192.995 167.616 192.792 168.127 192.696 168.634C192.633 169.089 192.491 169.497 192.272 169.859C192.054 170.22 191.592 170.487 190.888 170.66L190.498 171.218L190.65 171.839C190.1 172.282 189.782 172.953 189.696 173.853C189.599 174.712 189.41 175.461 189.128 176.102L189.126 176.629L189.358 176.77L188.666 179.049L188.664 179.577L188.37 179.452C188.431 179.7 188.392 180.259 188.255 181.128C188.106 181.955 187.922 182.901 187.7 183.966C187.468 184.99 187.273 185.982 187.114 186.944C186.997 187.896 186.952 188.609 186.982 189.086C186.763 189.447 186.651 190.155 186.647 191.211C186.633 192.225 186.665 193.249 186.744 194.285C186.823 195.32 186.876 196.075 186.906 196.552ZM197.244 192.494C197.545 192.288 197.805 192.005 198.023 191.644L197.744 191.58C197.589 191.663 197.443 191.786 197.308 191.951C197.204 192.065 197.08 192.183 196.934 192.307L197.244 192.494Z" fill="#ECDFCC"/>
<path d="M198.873 240.885C199.019 241.467 199.076 241.886 199.041 242.143C199.03 242.393 198.957 242.547 198.824 242.606C198.69 242.664 198.39 242.752 197.925 242.869L197.322 242.984C196.927 243.083 196.569 243.186 196.249 243.291C194.771 243.713 192.706 244.258 190.053 244.926C187.493 245.571 185.418 246.081 183.83 246.456L183.654 245.758L182.956 245.934L182.71 244.956C182.046 241.634 181.155 237.75 180.035 233.304C178.781 228.324 177.676 224.135 176.722 220.737C176.995 220.545 177.39 220.346 177.908 220.141C178.443 219.908 178.99 219.72 179.549 219.58C180.945 219.228 182.109 219.133 183.041 219.294L183.12 219.757C183.248 219.774 183.376 219.791 183.504 219.809C183.626 219.803 183.763 219.805 183.915 219.817C184.29 221.504 184.616 222.895 184.891 223.988C185.243 225.385 185.794 227.474 186.543 230.255L188.134 236.425L188.486 237.821C191.698 237.21 194.026 236.723 195.469 236.36C195.911 236.248 196.382 236.105 196.882 235.93L197.076 236.698L197.756 236.452C197.879 236.941 197.976 237.424 198.047 237.901L198.197 238.643L198.32 238.983L198.328 239.018L198.873 240.885ZM196.982 238.243C196.936 238.057 196.883 237.749 196.824 237.318L196.639 236.436C196.598 236.471 196.426 236.527 196.124 236.603C195.682 236.715 194.565 236.946 192.772 237.299C192.348 237.381 191.664 237.516 190.721 237.704C189.802 237.886 189.086 238.042 188.574 238.17C188.202 238.264 187.858 238.375 187.544 238.504L187.536 238.469L186.885 235.737C186.562 234.457 186.038 232.473 185.311 229.785C184.597 227.144 184.069 225.148 183.729 223.798C183.483 222.821 183.155 221.419 182.744 219.592C182.022 219.476 180.986 219.589 179.637 219.929C179.101 220.064 178.598 220.227 178.127 220.42C177.673 220.584 177.342 220.742 177.132 220.894C178.392 225.502 179.476 229.609 180.384 233.217C181.504 237.662 182.395 241.546 183.059 244.868L183.217 245.497C183.892 245.327 184.384 245.215 184.692 245.162L189.483 243.993C191.345 243.524 193.35 242.982 195.497 242.367C195.77 242.273 196.093 242.18 196.465 242.086L197.242 241.927C197.545 241.851 197.725 241.732 197.783 241.568C197.841 241.405 197.796 241.033 197.65 240.451L197.105 238.583L196.982 238.243ZM214.662 238.58C213.772 238.977 213.048 239.246 212.489 239.387C211.418 239.656 210.342 239.804 209.259 239.829C209.096 239.573 208.97 239.419 208.883 239.367C208.796 239.315 208.702 239.289 208.603 239.289C208.51 239.312 208.438 239.318 208.385 239.307C208.052 238.772 207.559 237.894 206.905 236.672C206.525 235.951 206.222 235.434 205.994 235.12C205.79 234.8 205.618 234.658 205.478 234.693C205.292 234.74 205.132 234.792 204.998 234.851C204.882 234.88 204.719 234.921 204.51 234.974C204.458 235.457 204.474 236.208 204.557 237.227C204.6 238.181 204.618 238.944 204.614 239.514C204.609 240.084 204.54 240.646 204.407 241.2C204.337 241.217 204.235 241.255 204.102 241.314C203.991 241.366 203.843 241.416 203.657 241.463C203.395 241.504 202.856 241.627 202.042 241.832L200.532 242.175L198.673 242.606L198.602 241.882L197.799 242.084L197.637 239.378C197.339 235.443 197.114 231.552 196.962 227.705C196.804 223.834 196.82 219.821 197.011 215.665C197.418 215.513 197.657 215.428 197.726 215.41C197.82 215.387 198.125 215.322 198.643 215.216C199.161 215.111 200.214 214.771 201.802 214.198C201.995 214.57 202.117 214.812 202.17 214.922L202.676 214.72C203.184 215.855 204.726 218.882 207.302 223.802C208.248 225.593 208.747 226.544 208.8 226.654L214.662 238.58ZM201.619 214.652C200.619 215.003 199.618 215.305 198.617 215.557L197.884 215.742C197.605 215.812 197.433 215.868 197.369 215.908C197.196 219.937 197.182 223.813 197.328 227.539C197.498 231.258 197.726 235.21 198.013 239.394C198.054 239.854 198.09 240.291 198.12 240.704C198.144 241.094 198.159 241.4 198.165 241.621L198.243 241.638L199.081 241.427L201.848 240.767C202.087 240.732 202.369 240.673 202.695 240.591C202.951 240.527 203.099 240.477 203.14 240.442L203.236 240.381C203.357 239.979 203.414 239.519 203.408 239.001C203.401 238.483 203.365 237.799 203.299 236.949C203.204 235.587 203.205 234.659 203.303 234.164C203.559 234.1 203.769 234.047 203.932 234.006C204.089 233.941 204.214 233.898 204.307 233.874L204.761 233.76L205.477 233.654C205.768 234.026 206.101 234.561 206.475 235.259C206.872 235.951 207.117 236.384 207.21 236.558C207.719 237.594 208.165 238.384 208.55 238.931L208.585 238.922C209.546 238.903 210.526 238.767 211.527 238.515C212.109 238.369 212.699 238.158 213.298 237.884L213.29 237.849L207.594 226.29L201.619 214.652ZM202.022 230.106C201.779 227.965 201.67 226.99 201.693 227.182C201.487 225.576 201.354 224.409 201.294 223.681C201.252 222.925 201.301 222.529 201.441 222.493C201.604 222.452 201.916 222.955 202.378 224.002C202.863 225.043 203.605 226.861 204.605 229.456L202.868 229.93L202.022 230.106ZM202.642 225.347L203.086 229.467L204.098 229.212L202.642 225.347ZM225.159 223.128C226.284 223.959 227.153 224.705 227.765 225.368C228.378 226.03 228.816 226.885 229.079 227.932C229.748 230.586 229.376 232.597 227.963 233.968C226.575 235.332 224.577 236.343 221.97 236.999C220.667 237.327 219.527 237.565 218.549 237.712L218.584 237.703L216.393 238.144L216.253 238.179L216.009 238.241C215.52 238.364 215.217 238.192 215.1 237.727C214.704 237.728 214.468 237.725 214.393 237.719C213.684 235.299 212.94 232.541 212.161 229.446C211.516 226.886 211.047 224.975 210.754 223.712L209.329 217.908L208.134 213.16C209.901 212.121 211.739 211.361 213.648 210.881C215.347 210.453 216.994 210.36 218.589 210.601C220.179 210.82 221.571 211.435 222.766 212.445C223.961 213.456 224.793 214.892 225.262 216.754C225.696 218.476 225.586 220.496 224.932 222.814L224.949 222.884C224.967 222.954 225.034 223.024 225.151 223.093L225.159 223.128ZM223.665 222.502C223.642 222.409 223.653 222.307 223.7 222.197C224.359 220.001 224.472 218.042 224.039 216.32C223.4 213.783 222.134 212.147 220.241 211.411C218.348 210.675 216.179 210.614 213.736 211.23C212.013 211.664 210.286 212.371 208.553 213.352L208.527 213.395C208.826 214.483 209.245 216.098 209.784 218.239C210.411 220.729 210.868 222.594 211.156 223.834L212.527 229.428C213.266 232.36 213.984 235.013 214.68 237.387C214.878 237.387 215 237.381 215.047 237.369L215.466 237.264C215.931 237.146 216.353 237.052 216.732 236.982C217.133 236.906 217.465 236.847 217.727 236.806C219.146 236.547 220.24 236.321 221.008 236.128C223.522 235.495 225.444 234.528 226.775 233.228C228.129 231.921 228.489 230.011 227.856 227.498C227.604 226.497 227.178 225.689 226.577 225.073C225.994 224.428 225.155 223.699 224.059 222.886C223.826 222.746 223.695 222.619 223.665 222.502ZM217.438 221.36C216.903 221.495 216.393 221.586 215.91 221.634C215.653 221.203 215.434 220.628 215.253 219.906L214.98 218.675C214.95 218.46 214.889 218.166 214.795 217.794L214.681 217.34C214.942 217.101 215.352 216.911 215.911 216.77C216.749 216.559 217.558 216.529 218.338 216.679C219.112 216.806 219.596 217.253 219.79 218.021C219.913 218.51 219.881 219.025 219.696 219.567C219.575 220.067 219.314 220.455 218.912 220.729C218.534 220.998 218.043 221.208 217.438 221.36ZM219.44 218.109C219.37 217.83 219.25 217.649 219.082 217.568C218.907 217.464 218.659 217.415 218.339 217.421L218.374 217.412C217.885 217.436 217.385 217.513 216.873 217.642C216.454 217.747 216.16 217.858 215.991 217.975L216.079 218.324L216.343 219.52C216.461 220.183 216.558 220.666 216.634 220.969L216.722 221.17L217.35 221.011C218.49 220.724 219.153 220.211 219.338 219.471C219.506 218.959 219.54 218.505 219.44 218.109ZM218.512 231.373L218.433 231.356C217.996 230.996 217.657 230.339 217.417 229.385C217.141 228.291 217.035 227.328 217.098 226.495L217.953 226.354C218.704 226.19 219.338 226.104 219.856 226.097C220.368 226.067 220.849 226.206 221.297 226.514C221.746 226.822 222.07 227.371 222.269 228.162C222.404 228.698 222.393 229.146 222.237 229.507C222.028 229.956 221.717 230.294 221.304 230.522C220.891 230.749 220.382 230.939 219.777 231.092L218.512 231.373ZM221.92 228.25C221.844 227.948 221.672 227.558 221.403 227.081L221.412 227.116L221.368 227.09C220.832 226.928 220.122 226.958 219.238 227.181C219.028 227.234 218.732 227.284 218.348 227.331C218.402 228.431 218.499 229.26 218.64 229.819C218.663 229.912 218.693 230.078 218.728 230.317C218.787 230.549 218.886 230.697 219.026 230.761C219.189 230.819 219.422 230.81 219.724 230.734C220.283 230.593 220.737 230.429 221.085 230.243C221.452 230.027 221.725 229.735 221.905 229.368C222.026 229.065 222.032 228.693 221.92 228.25Z" fill="#ECDFCC"/>
</svg>

